<?xml version="1.0" encoding="UTF-8" standalone="no"?>
<!DOCTYPE svg PUBLIC "-//W3C//DTD SVG 1.1//EN"
 "http://www.w3.org/Graphics/SVG/1.1/DTD/svg11.dtd">
<!-- Generated by graphviz version 2.26.3 (20100126.1600)
 -->
<!-- Title: G Pages: 1 -->
<svg width="769pt" height="370pt"
 viewBox="0.00 0.00 768.79 370.00" xmlns="http://www.w3.org/2000/svg" xmlns:xlink="http://www.w3.org/1999/xlink">
<g id="graph1" class="graph" transform="scale(1 1) rotate(0) translate(4 366)">
<title>G</title>
<polygon fill="white" stroke="white" points="-4,5 -4,-366 765.786,-366 765.786,5 -4,5"/>
<g id="graph2" class="cluster"><title>cluster_info</title>
<polygon fill="navajowhite" stroke="navajowhite" points="542.786,-277 542.786,-354 750.786,-354 750.786,-277 542.786,-277"/>
<text text-anchor="middle" x="646.786" y="-337.4" font-family="Times Roman,serif" font-size="14.00">INFO</text>
</g>
<g id="graph3" class="cluster"><title>cluster_base</title>
<polygon fill="navajowhite" stroke="navajowhite" points="128.786,-8 128.786,-167 752.786,-167 752.786,-8 128.786,-8"/>
<text text-anchor="middle" x="440.786" y="-150.4" font-family="Times Roman,serif" font-size="14.00">BASE</text>
</g>
<!-- manage -->
<g id="node1" class="node"><title>manage</title>
<ellipse fill="lightgrey" stroke="black" cx="69.786" cy="-116" rx="48.8383" ry="18"/>
<text text-anchor="middle" x="69.786" y="-111.9" font-family="Times Roman,serif" font-size="14.00">manage</text>
</g>
<!-- ext -->
<g id="node2" class="node"><title>ext</title>
<ellipse fill="lightgrey" stroke="black" cx="199.786" cy="-303" rx="27.1004" ry="18"/>
<text text-anchor="middle" x="199.786" y="-298.9" font-family="Times Roman,serif" font-size="14.00">ext</text>
</g>
<!-- ext&#45;&gt;manage -->
<g id="edge24" class="edge"><title>ext&#45;&gt;manage</title>
<path fill="none" stroke="black" d="M180.238,-290.345C171.27,-283.984 160.863,-275.77 152.786,-267 118.592,-229.869 93.4146,-176.084 80.2237,-143.73"/>
<polygon fill="black" stroke="black" points="83.3129,-142.027 76.3658,-134.028 76.8082,-144.613 83.3129,-142.027"/>
<text text-anchor="middle" x="135.786" y="-218.8" font-family="Arial" font-size="8.00">db</text>
</g>
<!-- app -->
<g id="node5" class="node"><title>app</title>
<ellipse fill="lightgrey" stroke="black" cx="326.786" cy="-221" rx="27.9903" ry="18"/>
<text text-anchor="middle" x="326.786" y="-216.9" font-family="Times Roman,serif" font-size="14.00">app</text>
</g>
<!-- ext&#45;&gt;app -->
<g id="edge20" class="edge"><title>ext&#45;&gt;app</title>
<path fill="none" stroke="black" d="M218.679,-289.871C232.237,-280.536 251.001,-267.79 267.786,-257 277.347,-250.854 287.911,-244.327 297.426,-238.543"/>
<polygon fill="black" stroke="black" points="299.414,-241.431 306.161,-233.261 295.792,-235.441 299.414,-241.431"/>
<text text-anchor="middle" x="280.286" y="-259.8" font-family="Arial" font-size="8.00">assets</text>
</g>
<!-- testing -->
<g id="node6" class="node"><title>testing</title>
<ellipse fill="lightgrey" stroke="black" cx="433.786" cy="-221" rx="45.1673" ry="18"/>
<text text-anchor="middle" x="433.786" y="-216.9" font-family="Times Roman,serif" font-size="14.00">testing</text>
</g>
<!-- ext&#45;&gt;testing -->
<g id="edge8" class="edge"><title>ext&#45;&gt;testing</title>
<path fill="none" stroke="black" d="M223.402,-294.152C248.667,-284.739 289.949,-269.512 325.786,-257 346.538,-249.755 369.641,-242.011 389.137,-235.568"/>
<polygon fill="black" stroke="black" points="390.279,-238.877 398.681,-232.423 388.088,-232.229 390.279,-238.877"/>
<text text-anchor="middle" x="330.786" y="-259.8" font-family="Arial" font-size="8.00">db</text>
</g>
<!-- base.views -->
<g id="node12" class="node"><title>base.views</title>
<ellipse fill="lightgrey" stroke="black" cx="175.786" cy="-34" rx="38.9134" ry="18"/>
<text text-anchor="middle" x="175.786" y="-29.9" font-family="Times Roman,serif" font-size="14.00">views</text>
</g>
<!-- ext&#45;&gt;base.views -->
<g id="edge10" class="edge"><title>ext&#45;&gt;base.views</title>
<path fill="none" stroke="black" d="M175.795,-294.38C133.172,-277.572 45.5576,-235.91 11.786,-167 -1.70968,-139.463 -5.51364,-123.321 11.786,-98 25.742,-77.5727 87.6316,-57.3871 131.249,-45.3065"/>
<polygon fill="black" stroke="black" points="132.346,-48.6354 141.078,-42.6347 130.51,-41.8805 132.346,-48.6354"/>
<text text-anchor="middle" x="48.286" y="-177.8" font-family="Arial" font-size="8.00">login_manager</text>
</g>
<!-- base.models -->
<g id="node13" class="node"><title>base.models</title>
<ellipse fill="lightgrey" stroke="black" cx="613.786" cy="-116" rx="45.1673" ry="18"/>
<text text-anchor="middle" x="613.786" y="-111.9" font-family="Times Roman,serif" font-size="14.00">models</text>
</g>
<!-- ext&#45;&gt;base.models -->
<g id="edge30" class="edge"><title>ext&#45;&gt;base.models</title>
<path fill="none" stroke="black" d="M208.138,-285.816C220.369,-262.703 245.479,-222.278 279.786,-203 389.168,-141.534 446.394,-220.709 559.786,-167 572.476,-160.989 584.141,-150.865 593.356,-141.213"/>
<polygon fill="black" stroke="black" points="596.076,-143.424 600.194,-133.662 590.888,-138.725 596.076,-143.424"/>
<text text-anchor="middle" x="284.786" y="-218.8" font-family="Arial" font-size="8.00">db</text>
</g>
<!-- base.context_processors -->
<g id="node15" class="node"><title>base.context_processors</title>
<ellipse fill="lightgrey" stroke="black" cx="333.786" cy="-116" rx="103.037" ry="18"/>
<text text-anchor="middle" x="333.786" y="-111.9" font-family="Times Roman,serif" font-size="14.00">context_processors</text>
</g>
<!-- ext&#45;&gt;base.context_processors -->
<g id="edge28" class="edge"><title>ext&#45;&gt;base.context_processors</title>
<path fill="none" stroke="black" d="M190.331,-286.14C180.103,-265.472 166.991,-229.886 180.786,-203 191.462,-182.192 244.076,-155.162 284.656,-136.79"/>
<polygon fill="black" stroke="black" points="286.193,-139.937 293.894,-132.662 283.337,-133.546 286.193,-139.937"/>
<text text-anchor="middle" x="196.286" y="-218.8" font-family="Arial" font-size="8.00">gravatar</text>
</g>
<!-- settings -->
<g id="node3" class="node"><title>settings</title>
<ellipse fill="lightgrey" stroke="black" cx="480.786" cy="-303" rx="48.8383" ry="18"/>
<text text-anchor="middle" x="480.786" y="-298.9" font-family="Times Roman,serif" font-size="14.00">settings</text>
</g>
<!-- settings&#45;&gt;app -->
<g id="edge18" class="edge"><title>settings&#45;&gt;app</title>
<path fill="none" stroke="black" d="M471.386,-284.914C465.523,-275.302 457.125,-264.048 446.786,-257 421.31,-239.631 409.288,-247.963 379.786,-239 373.684,-237.146 367.228,-235.06 361,-232.983"/>
<polygon fill="black" stroke="black" points="362.079,-229.653 351.484,-229.759 359.833,-236.283 362.079,-229.653"/>
<text text-anchor="middle" x="491.786" y="-259.8" font-family="Arial" font-size="8.00">DevelopmentConfig</text>
</g>
<!-- settings&#45;&gt;testing -->
<g id="edge6" class="edge"><title>settings&#45;&gt;testing</title>
<path fill="none" stroke="black" d="M511.702,-288.927C529.334,-280.588 548.401,-270.908 550.786,-267 553.101,-263.206 553.426,-260.575 550.786,-257 542.577,-245.885 512.522,-236.774 484.931,-230.498"/>
<polygon fill="black" stroke="black" points="485.438,-227.027 474.922,-228.316 483.947,-233.866 485.438,-227.027"/>
<text text-anchor="middle" x="576.286" y="-259.8" font-family="Arial" font-size="8.00">TestingConfig</text>
</g>
<!-- helpers -->
<g id="node4" class="node"><title>helpers</title>
<ellipse fill="lightgrey" stroke="black" cx="357.786" cy="-303" rx="46.0565" ry="18"/>
<text text-anchor="middle" x="357.786" y="-298.9" font-family="Times Roman,serif" font-size="14.00">helpers</text>
</g>
<!-- helpers&#45;&gt;app -->
<g id="edge16" class="edge"><title>helpers&#45;&gt;app</title>
<path fill="none" stroke="black" d="M350.906,-284.802C346.837,-274.038 341.605,-260.2 337.055,-248.164"/>
<polygon fill="black" stroke="black" points="340.244,-246.701 333.434,-238.585 333.696,-249.176 340.244,-246.701"/>
<text text-anchor="middle" x="365.286" y="-259.8" font-family="Arial" font-size="8.00">AppFactory</text>
</g>
<!-- helpers&#45;&gt;testing -->
<g id="edge4" class="edge"><title>helpers&#45;&gt;testing</title>
<path fill="none" stroke="black" d="M373.533,-286.01C384.437,-274.245 399.114,-258.409 411.253,-245.312"/>
<polygon fill="black" stroke="black" points="413.828,-247.682 418.059,-237.969 408.694,-242.924 413.828,-247.682"/>
<text text-anchor="middle" x="421.286" y="-259.8" font-family="Arial" font-size="8.00">AppFactory</text>
</g>
<!-- app&#45;&gt;manage -->
<g id="edge22" class="edge"><title>app&#45;&gt;manage</title>
<path fill="none" stroke="black" d="M300.483,-214.72C249.373,-202.408 140.278,-175.553 124.786,-167 112.552,-160.246 100.911,-150.193 91.5141,-140.793"/>
<polygon fill="black" stroke="black" points="93.9391,-138.265 84.4913,-133.47 88.887,-143.11 93.9391,-138.265"/>
<text text-anchor="middle" x="184.786" y="-177.8" font-family="Arial" font-size="8.00">app</text>
</g>
<!-- base.tests -->
<g id="node11" class="node"><title>base.tests</title>
<ellipse fill="lightgrey" stroke="black" cx="710.786" cy="-116" rx="34.2406" ry="18"/>
<text text-anchor="middle" x="710.786" y="-111.9" font-family="Times Roman,serif" font-size="14.00">tests</text>
</g>
<!-- testing&#45;&gt;base.tests -->
<g id="edge26" class="edge"><title>testing&#45;&gt;base.tests</title>
<path fill="none" stroke="black" d="M475.919,-214.564C534.228,-205.106 635.946,-186.458 667.786,-167 678.227,-160.619 687.374,-150.818 694.517,-141.507"/>
<polygon fill="black" stroke="black" points="697.491,-143.367 700.493,-133.206 691.81,-139.277 697.491,-143.367"/>
<text text-anchor="middle" x="671.286" y="-177.8" font-family="Arial" font-size="8.00">KitTestCase</text>
</g>
<!-- info.views -->
<g id="node8" class="node"><title>info.views</title>
<ellipse fill="lightgrey" stroke="black" cx="703.786" cy="-303" rx="38.9134" ry="18"/>
<text text-anchor="middle" x="703.786" y="-298.9" font-family="Times Roman,serif" font-size="14.00">views</text>
</g>
<!-- info.__init__ -->
<g id="node9" class="node"><title>info.__init__</title>
<ellipse fill="lightgrey" stroke="black" cx="598.786" cy="-303" rx="47.9469" ry="18"/>
<text text-anchor="middle" x="598.786" y="-298.9" font-family="Times Roman,serif" font-size="14.00">__init__</text>
</g>
<!-- base.models&#45;&gt;base.views -->
<g id="edge14" class="edge"><title>base.models&#45;&gt;base.views</title>
<path fill="none" stroke="black" d="M580.322,-103.942C573.579,-101.769 566.499,-99.6675 559.786,-98 440.688,-68.4189 297.362,-48.604 224.088,-39.5825"/>
<polygon fill="black" stroke="black" points="224.146,-36.0639 213.797,-38.3299 223.3,-43.0126 224.146,-36.0639"/>
<text text-anchor="middle" x="484.786" y="-72.8" font-family="Arial" font-size="8.00">User</text>
</g>
<!-- base.__init__ -->
<g id="node14" class="node"><title>base.__init__</title>
<ellipse fill="lightgrey" stroke="black" cx="502.786" cy="-116" rx="47.9469" ry="18"/>
<text text-anchor="middle" x="502.786" y="-111.9" font-family="Times Roman,serif" font-size="14.00">__init__</text>
</g>
<!-- base.forms -->
<g id="node16" class="node"><title>base.forms</title>
<ellipse fill="lightgrey" stroke="black" cx="174.786" cy="-116" rx="38.2185" ry="18"/>
<text text-anchor="middle" x="174.786" y="-111.9" font-family="Times Roman,serif" font-size="14.00">forms</text>
</g>
<!-- base.forms&#45;&gt;base.views -->
<g id="edge12" class="edge"><title>base.forms&#45;&gt;base.views</title>
<path fill="none" stroke="black" d="M175.008,-97.8015C175.135,-87.3976 175.297,-74.1215 175.44,-62.3768"/>
<polygon fill="black" stroke="black" points="178.942,-62.1896 175.565,-52.1476 171.943,-62.1041 178.942,-62.1896"/>
<text text-anchor="middle" x="194.786" y="-72.8" font-family="Arial" font-size="8.00">LoginForm</text>
</g>
</g>
</svg>
